<svg xmlns="http://www.w3.org/2000/svg" xmlns:xlink="http://www.w3.org/1999/xlink" width="472" zoomAndPan="magnify" viewBox="0 0 354 74.999997" height="100" preserveAspectRatio="xMidYMid meet" version="1.0"><defs><g/><clipPath id="e4921f436d"><path d="M 0.664062 0.347656 L 76.414062 0.347656 L 76.414062 74.597656 L 0.664062 74.597656 Z M 0.664062 0.347656 " clip-rule="nonzero"/></clipPath></defs><path fill="#141514" d="M 43.15625 30.679688 L 53.511719 30.679688 L 53.511719 34.347656 L 43.15625 34.347656 Z M 43.15625 30.679688 " fill-opacity="1" fill-rule="nonzero"/><g clip-path="url(#e4921f436d)"><path fill="#1a56db" d="M 74.839844 17.605469 C 74.382812 16.179688 73.800781 14.789062 73.105469 13.472656 C 72.054688 11.484375 70.746094 9.632812 69.222656 7.992188 C 69.046875 7.808594 68.882812 7.628906 68.699219 7.445312 C 66.105469 4.8125 63.027344 2.863281 59.726562 1.761719 C 59.304688 1.617188 58.875 1.492188 58.457031 1.382812 C 54.5625 0.355469 50.277344 0.574219 46.367188 2 C 43.796875 2.933594 41.511719 4.359375 39.65625 6.140625 C 39.265625 6.519531 38.890625 6.910156 38.542969 7.320312 C 38.195312 6.910156 37.820312 6.519531 37.429688 6.140625 C 35.582031 4.351562 33.289062 2.933594 30.71875 2 C 26.816406 0.574219 22.523438 0.355469 18.628906 1.382812 C 18.226562 1.492188 17.824219 1.609375 17.433594 1.734375 C 14.105469 2.835938 11 4.785156 8.386719 7.445312 C 8.011719 7.828125 7.644531 8.226562 7.289062 8.625 C 6.164062 9.914062 5.179688 11.324219 4.335938 12.8125 C 3.476562 14.335938 2.773438 15.945312 2.234375 17.605469 C 1.074219 21.238281 0.664062 25.148438 1.019531 29.226562 C 1.292969 32.429688 2.035156 35.617188 3.214844 38.730469 C 3.441406 39.320312 3.679688 39.910156 3.933594 40.5 C 5.652344 44.441406 8.101562 48.292969 11.246094 52.015625 C 13.15625 54.273438 15.332031 56.488281 17.753906 58.648438 C 17.964844 58.832031 18.171875 59.023438 18.382812 59.203125 C 18.464844 59.277344 18.558594 59.347656 18.640625 59.429688 C 18.667969 59.457031 18.695312 59.476562 18.722656 59.503906 C 18.847656 59.613281 18.976562 59.722656 19.105469 59.832031 C 23.511719 63.527344 29.003906 67.121094 33.929688 70.335938 C 33.992188 70.378906 34.066406 70.425781 34.128906 70.472656 C 35.316406 71.242188 36.433594 71.976562 37.519531 72.695312 L 40.390625 74.59375 L 40.390625 30.679688 L 23.574219 30.679688 L 23.574219 34.347656 L 36.695312 34.347656 L 36.695312 67.746094 C 36.515625 67.628906 36.339844 67.511719 36.15625 67.394531 C 25.136719 60.195312 12.753906 51.476562 7.324219 39.039062 C 5.910156 35.789062 5.039062 32.476562 4.722656 29.21875 C 4.363281 25.566406 4.710938 22.007812 5.761719 18.714844 C 7.917969 11.976562 13.339844 6.566406 19.582031 4.921875 C 21.589844 4.394531 23.675781 4.277344 25.695312 4.53125 C 28.636719 4.894531 31.441406 6.019531 33.691406 7.765625 C 34.996094 8.78125 36.121094 9.996094 36.960938 11.394531 L 38.113281 13.300781 L 38.550781 14.027344 L 38.945312 13.375 L 40.132812 11.40625 C 41.367188 9.363281 43.183594 7.699219 45.332031 6.503906 C 46.421875 5.894531 47.597656 5.414062 48.816406 5.066406 C 51.59375 4.277344 54.636719 4.179688 57.503906 4.941406 C 60.328125 5.683594 62.996094 7.199219 65.253906 9.269531 C 66.9375 10.804688 68.398438 12.640625 69.550781 14.691406 C 70.273438 15.972656 70.867188 17.324219 71.324219 18.738281 C 72.429688 22.179688 72.75 25.929688 72.308594 29.753906 C 71.953125 32.847656 71.105469 35.988281 69.761719 39.066406 C 68.398438 42.191406 66.527344 45.257812 64.167969 48.265625 C 62.101562 50.886719 59.671875 53.449219 56.867188 55.945312 C 56.382812 56.371094 55.886719 56.796875 55.367188 57.234375 C 55.359375 57.234375 55.359375 57.242188 55.347656 57.242188 C 55.230469 57.34375 55.113281 57.441406 54.984375 57.542969 C 54.9375 57.578125 54.890625 57.617188 54.855469 57.652344 C 54.773438 57.722656 54.691406 57.789062 54.601562 57.859375 C 54.527344 57.914062 54.453125 57.976562 54.378906 58.03125 C 54.324219 58.078125 54.269531 58.125 54.214844 58.167969 C 54.117188 58.242188 54.023438 58.324219 53.921875 58.394531 C 53.886719 58.421875 53.859375 58.449219 53.824219 58.476562 C 53.703125 58.570312 53.585938 58.660156 53.464844 58.757812 C 53.457031 58.769531 53.4375 58.777344 53.429688 58.785156 C 51.410156 60.347656 49.21875 61.902344 46.976562 63.417969 C 46.960938 63.433594 46.941406 63.445312 46.914062 63.460938 C 46.804688 63.535156 46.695312 63.605469 46.585938 63.6875 C 46.53125 63.726562 46.476562 63.761719 46.410156 63.808594 C 46.339844 63.851562 46.265625 63.90625 46.191406 63.953125 C 46.089844 64.023438 45.992188 64.089844 45.890625 64.160156 C 45.871094 64.179688 45.84375 64.1875 45.828125 64.207031 C 44.929688 64.804688 44.035156 65.394531 43.148438 65.976562 L 43.148438 70.371094 C 47.835938 67.3125 53.046875 63.90625 57.332031 60.394531 C 57.359375 60.367188 57.386719 60.347656 57.414062 60.320312 C 57.503906 60.25 57.597656 60.167969 57.699219 60.09375 C 57.753906 60.046875 57.808594 60.003906 57.863281 59.957031 C 57.933594 59.894531 58.015625 59.832031 58.089844 59.765625 C 58.164062 59.703125 58.238281 59.640625 58.308594 59.578125 C 58.375 59.523438 58.4375 59.46875 58.492188 59.421875 C 58.59375 59.339844 58.683594 59.257812 58.777344 59.175781 C 58.8125 59.140625 58.859375 59.105469 58.894531 59.078125 C 59.03125 58.957031 59.167969 58.832031 59.304688 58.714844 C 61.78125 56.507812 63.992188 54.238281 65.941406 51.914062 C 69.019531 48.246094 71.421875 44.441406 73.113281 40.554688 C 73.261719 40.21875 73.398438 39.882812 73.535156 39.546875 C 74.886719 36.191406 75.726562 32.738281 76.03125 29.273438 C 76.414062 25.148438 76.003906 21.238281 74.839844 17.605469 Z M 74.839844 17.605469 " fill-opacity="1" fill-rule="nonzero"/></g><path fill="#141514" d="M 12.042969 25.230469 L 18.035156 25.230469 L 18.035156 39.792969 L 12.042969 39.792969 Z M 12.042969 25.230469 " fill-opacity="1" fill-rule="nonzero"/><path fill="#141514" d="M 20.578125 22.582031 L 26.570312 22.582031 L 26.570312 42.4375 L 20.578125 42.4375 Z M 20.578125 22.582031 " fill-opacity="1" fill-rule="nonzero"/><path fill="#141514" d="M 59.050781 25.230469 L 65.046875 25.230469 L 65.046875 39.792969 L 59.050781 39.792969 Z M 59.050781 25.230469 " fill-opacity="1" fill-rule="nonzero"/><path fill="#141514" d="M 50.515625 22.582031 L 56.507812 22.582031 L 56.507812 42.4375 L 50.515625 42.4375 Z M 50.515625 22.582031 " fill-opacity="1" fill-rule="nonzero"/><g fill="#1a56db" fill-opacity="1"><g transform="translate(98.759396, 40.355967)"><g><path d="M 22.0625 -21.296875 L 22.0625 0 L 17.125 0 L 17.125 -8.734375 L 7.453125 -8.734375 L 7.453125 0 L 2.53125 0 L 2.53125 -21.296875 L 7.453125 -21.296875 L 7.453125 -12.90625 L 17.125 -12.90625 L 17.125 -21.296875 Z M 22.0625 -21.296875 "/></g></g></g><g fill="#1a56db" fill-opacity="1"><g transform="translate(125.887522, 40.355967)"><g><path d="M 19.015625 -3.953125 L 19.015625 0 L 2.53125 0 L 2.53125 -21.296875 L 18.625 -21.296875 L 18.625 -17.34375 L 7.421875 -17.34375 L 7.421875 -12.71875 L 17.3125 -12.71875 L 17.3125 -8.890625 L 7.421875 -8.890625 L 7.421875 -3.953125 Z M 19.015625 -3.953125 "/></g></g></g><g fill="#1a56db" fill-opacity="1"><g transform="translate(148.849202, 40.355967)"><g><path d="M 2.53125 -21.296875 L 7.453125 -21.296875 L 7.453125 -4.015625 L 18.125 -4.015625 L 18.125 0 L 2.53125 0 Z M 2.53125 -21.296875 "/></g></g></g><g fill="#1a56db" fill-opacity="1"><g transform="translate(169.773277, 40.355967)"><g><path d="M 6.9375 -17.28125 L 0.125 -17.28125 L 0.125 -21.296875 L 18.671875 -21.296875 L 18.671875 -17.28125 L 11.859375 -17.28125 L 11.859375 0 L 6.9375 0 Z M 6.9375 -17.28125 "/></g></g></g><g fill="#1a56db" fill-opacity="1"><g transform="translate(191.123123, 40.355967)"><g><path d="M 22.0625 -21.296875 L 22.0625 0 L 17.125 0 L 17.125 -8.734375 L 7.453125 -8.734375 L 7.453125 0 L 2.53125 0 L 2.53125 -21.296875 L 7.453125 -21.296875 L 7.453125 -12.90625 L 17.125 -12.90625 L 17.125 -21.296875 Z M 22.0625 -21.296875 "/></g></g></g><g fill="#1a56db" fill-opacity="1"><g transform="translate(218.251246, 40.355967)"><g/></g></g><g fill="#1a56db" fill-opacity="1"><g transform="translate(229.413074, 40.355967)"><g><path d="M 9.515625 0.359375 C 7.835938 0.359375 6.210938 0.132812 4.640625 -0.3125 C 3.066406 -0.769531 1.804688 -1.363281 0.859375 -2.09375 L 2.53125 -5.8125 C 3.4375 -5.144531 4.519531 -4.609375 5.78125 -4.203125 C 7.039062 -3.796875 8.296875 -3.59375 9.546875 -3.59375 C 10.953125 -3.59375 11.988281 -3.800781 12.65625 -4.21875 C 13.320312 -4.632812 13.65625 -5.1875 13.65625 -5.875 C 13.65625 -6.375 13.457031 -6.789062 13.0625 -7.125 C 12.664062 -7.46875 12.160156 -7.738281 11.546875 -7.9375 C 10.929688 -8.144531 10.09375 -8.367188 9.03125 -8.609375 C 7.414062 -8.992188 6.085938 -9.378906 5.046875 -9.765625 C 4.015625 -10.148438 3.128906 -10.769531 2.390625 -11.625 C 1.648438 -12.476562 1.28125 -13.613281 1.28125 -15.03125 C 1.28125 -16.269531 1.613281 -17.390625 2.28125 -18.390625 C 2.945312 -19.390625 3.953125 -20.179688 5.296875 -20.765625 C 6.648438 -21.359375 8.300781 -21.65625 10.25 -21.65625 C 11.613281 -21.65625 12.941406 -21.492188 14.234375 -21.171875 C 15.535156 -20.847656 16.671875 -20.382812 17.640625 -19.78125 L 16.125 -16.03125 C 14.15625 -17.144531 12.1875 -17.703125 10.21875 -17.703125 C 8.84375 -17.703125 7.820312 -17.476562 7.15625 -17.03125 C 6.5 -16.582031 6.171875 -15.992188 6.171875 -15.265625 C 6.171875 -14.535156 6.550781 -13.992188 7.3125 -13.640625 C 8.070312 -13.285156 9.234375 -12.9375 10.796875 -12.59375 C 12.421875 -12.207031 13.75 -11.820312 14.78125 -11.4375 C 15.820312 -11.050781 16.710938 -10.441406 17.453125 -9.609375 C 18.191406 -8.773438 18.5625 -7.648438 18.5625 -6.234375 C 18.5625 -5.015625 18.21875 -3.90625 17.53125 -2.90625 C 16.851562 -1.90625 15.832031 -1.109375 14.46875 -0.515625 C 13.113281 0.0664062 11.460938 0.359375 9.515625 0.359375 Z M 9.515625 0.359375 "/></g></g></g><g fill="#1a56db" fill-opacity="1"><g transform="translate(251.371156, 40.355967)"><g><path d="M 12.75 -7.546875 L 12.75 0 L 7.8125 0 L 7.8125 -7.609375 L -0.421875 -21.296875 L 4.8125 -21.296875 L 10.5 -11.828125 L 16.1875 -21.296875 L 21.015625 -21.296875 Z M 12.75 -7.546875 "/></g></g></g><g fill="#1a56db" fill-opacity="1"><g transform="translate(274.484898, 40.355967)"><g><path d="M 22.0625 -21.296875 L 22.0625 0 L 18.015625 0 L 7.390625 -12.921875 L 7.390625 0 L 2.53125 0 L 2.53125 -21.296875 L 6.609375 -21.296875 L 17.1875 -8.359375 L 17.1875 -21.296875 Z M 22.0625 -21.296875 "/></g></g></g><g fill="#1a56db" fill-opacity="1"><g transform="translate(301.613032, 40.355967)"><g><path d="M 12.71875 0.359375 C 10.550781 0.359375 8.585938 -0.109375 6.828125 -1.046875 C 5.078125 -1.992188 3.695312 -3.300781 2.6875 -4.96875 C 1.6875 -6.644531 1.1875 -8.535156 1.1875 -10.640625 C 1.1875 -12.753906 1.6875 -14.644531 2.6875 -16.3125 C 3.695312 -17.988281 5.078125 -19.296875 6.828125 -20.234375 C 8.585938 -21.179688 10.5625 -21.65625 12.75 -21.65625 C 14.59375 -21.65625 16.257812 -21.332031 17.75 -20.6875 C 19.238281 -20.039062 20.492188 -19.109375 21.515625 -17.890625 L 18.34375 -14.96875 C 16.90625 -16.632812 15.117188 -17.46875 12.984375 -17.46875 C 11.671875 -17.46875 10.492188 -17.175781 9.453125 -16.59375 C 8.421875 -16.019531 7.613281 -15.210938 7.03125 -14.171875 C 6.457031 -13.140625 6.171875 -11.960938 6.171875 -10.640625 C 6.171875 -9.328125 6.457031 -8.148438 7.03125 -7.109375 C 7.613281 -6.078125 8.421875 -5.269531 9.453125 -4.6875 C 10.492188 -4.113281 11.671875 -3.828125 12.984375 -3.828125 C 15.117188 -3.828125 16.90625 -4.671875 18.34375 -6.359375 L 21.515625 -3.4375 C 20.492188 -2.195312 19.234375 -1.253906 17.734375 -0.609375 C 16.234375 0.0351562 14.5625 0.359375 12.71875 0.359375 Z M 12.71875 0.359375 "/></g></g></g><g fill="#141514" fill-opacity="1"><g transform="translate(106.432316, 56.047871)"><g><path d="M 3.703125 -6.71875 C 4.296875 -6.71875 4.8125 -6.617188 5.25 -6.421875 C 5.6875 -6.222656 6.023438 -5.941406 6.265625 -5.578125 C 6.503906 -5.210938 6.625 -4.78125 6.625 -4.28125 C 6.625 -3.789062 6.503906 -3.359375 6.265625 -2.984375 C 6.023438 -2.617188 5.6875 -2.335938 5.25 -2.140625 C 4.8125 -1.953125 4.296875 -1.859375 3.703125 -1.859375 L 2.34375 -1.859375 L 2.34375 0 L 0.796875 0 L 0.796875 -6.71875 Z M 3.609375 -3.125 C 4.078125 -3.125 4.429688 -3.222656 4.671875 -3.421875 C 4.921875 -3.617188 5.046875 -3.90625 5.046875 -4.28125 C 5.046875 -4.65625 4.921875 -4.941406 4.671875 -5.140625 C 4.429688 -5.347656 4.078125 -5.453125 3.609375 -5.453125 L 2.34375 -5.453125 L 2.34375 -3.125 Z M 3.609375 -3.125 "/></g></g></g><g fill="#141514" fill-opacity="1"><g transform="translate(119.576103, 56.047871)"><g><path d="M 3.78125 0.109375 C 2.820312 0.109375 2.070312 -0.15625 1.53125 -0.6875 C 1 -1.21875 0.734375 -1.972656 0.734375 -2.953125 L 0.734375 -6.71875 L 2.296875 -6.71875 L 2.296875 -3.015625 C 2.296875 -1.804688 2.796875 -1.203125 3.796875 -1.203125 C 4.273438 -1.203125 4.640625 -1.347656 4.890625 -1.640625 C 5.148438 -1.929688 5.28125 -2.390625 5.28125 -3.015625 L 5.28125 -6.71875 L 6.828125 -6.71875 L 6.828125 -2.953125 C 6.828125 -1.972656 6.554688 -1.21875 6.015625 -0.6875 C 5.484375 -0.15625 4.738281 0.109375 3.78125 0.109375 Z M 3.78125 0.109375 "/></g></g></g><g fill="#141514" fill-opacity="1"><g transform="translate(133.257362, 56.047871)"><g><path d="M 3 0.109375 C 2.46875 0.109375 1.953125 0.0390625 1.453125 -0.09375 C 0.960938 -0.238281 0.566406 -0.425781 0.265625 -0.65625 L 0.796875 -1.828125 C 1.085938 -1.617188 1.429688 -1.445312 1.828125 -1.3125 C 2.222656 -1.1875 2.617188 -1.125 3.015625 -1.125 C 3.453125 -1.125 3.773438 -1.191406 3.984375 -1.328125 C 4.203125 -1.460938 4.3125 -1.640625 4.3125 -1.859375 C 4.3125 -2.015625 4.25 -2.144531 4.125 -2.25 C 4 -2.351562 3.835938 -2.4375 3.640625 -2.5 C 3.441406 -2.5625 3.175781 -2.632812 2.84375 -2.71875 C 2.332031 -2.832031 1.914062 -2.953125 1.59375 -3.078125 C 1.269531 -3.203125 0.988281 -3.394531 0.75 -3.65625 C 0.519531 -3.925781 0.40625 -4.285156 0.40625 -4.734375 C 0.40625 -5.128906 0.507812 -5.484375 0.71875 -5.796875 C 0.925781 -6.117188 1.242188 -6.367188 1.671875 -6.546875 C 2.097656 -6.734375 2.617188 -6.828125 3.234375 -6.828125 C 3.660156 -6.828125 4.078125 -6.773438 4.484375 -6.671875 C 4.898438 -6.578125 5.257812 -6.429688 5.5625 -6.234375 L 5.078125 -5.0625 C 4.460938 -5.40625 3.84375 -5.578125 3.21875 -5.578125 C 2.789062 -5.578125 2.472656 -5.503906 2.265625 -5.359375 C 2.054688 -5.222656 1.953125 -5.039062 1.953125 -4.8125 C 1.953125 -4.582031 2.070312 -4.410156 2.3125 -4.296875 C 2.550781 -4.191406 2.914062 -4.082031 3.40625 -3.96875 C 3.914062 -3.851562 4.332031 -3.734375 4.65625 -3.609375 C 4.988281 -3.484375 5.269531 -3.289062 5.5 -3.03125 C 5.738281 -2.769531 5.859375 -2.414062 5.859375 -1.96875 C 5.859375 -1.582031 5.75 -1.226562 5.53125 -0.90625 C 5.3125 -0.59375 4.988281 -0.34375 4.5625 -0.15625 C 4.132812 0.0195312 3.613281 0.109375 3 0.109375 Z M 3 0.109375 "/></g></g></g><g fill="#141514" fill-opacity="1"><g transform="translate(145.498977, 56.047871)"><g><path d="M 6.953125 -6.71875 L 6.953125 0 L 5.40625 0 L 5.40625 -2.75 L 2.34375 -2.75 L 2.34375 0 L 0.796875 0 L 0.796875 -6.71875 L 2.34375 -6.71875 L 2.34375 -4.0625 L 5.40625 -4.0625 L 5.40625 -6.71875 Z M 6.953125 -6.71875 "/></g></g></g><g fill="#141514" fill-opacity="1"><g transform="translate(159.372188, 56.047871)"><g/></g></g><g fill="#141514" fill-opacity="1"><g transform="translate(168.206631, 56.047871)"><g><path d="M 4.015625 -2.375 L 4.015625 0 L 2.46875 0 L 2.46875 -2.390625 L -0.140625 -6.71875 L 1.515625 -6.71875 L 3.3125 -3.734375 L 5.109375 -6.71875 L 6.625 -6.71875 Z M 4.015625 -2.375 "/></g></g></g><g fill="#141514" fill-opacity="1"><g transform="translate(180.812956, 56.047871)"><g><path d="M 4.046875 0.109375 C 3.347656 0.109375 2.71875 -0.0351562 2.15625 -0.328125 C 1.601562 -0.628906 1.164062 -1.046875 0.84375 -1.578125 C 0.53125 -2.109375 0.375 -2.703125 0.375 -3.359375 C 0.375 -4.015625 0.53125 -4.601562 0.84375 -5.125 C 1.164062 -5.65625 1.601562 -6.070312 2.15625 -6.375 C 2.71875 -6.675781 3.347656 -6.828125 4.046875 -6.828125 C 4.742188 -6.828125 5.367188 -6.675781 5.921875 -6.375 C 6.484375 -6.070312 6.921875 -5.65625 7.234375 -5.125 C 7.554688 -4.601562 7.71875 -4.015625 7.71875 -3.359375 C 7.71875 -2.703125 7.554688 -2.109375 7.234375 -1.578125 C 6.921875 -1.046875 6.484375 -0.628906 5.921875 -0.328125 C 5.367188 -0.0351562 4.742188 0.109375 4.046875 0.109375 Z M 4.046875 -1.203125 C 4.441406 -1.203125 4.800781 -1.289062 5.125 -1.46875 C 5.445312 -1.65625 5.695312 -1.910156 5.875 -2.234375 C 6.0625 -2.566406 6.15625 -2.941406 6.15625 -3.359375 C 6.15625 -3.773438 6.0625 -4.144531 5.875 -4.46875 C 5.695312 -4.789062 5.445312 -5.039062 5.125 -5.21875 C 4.800781 -5.40625 4.441406 -5.5 4.046875 -5.5 C 3.648438 -5.5 3.289062 -5.40625 2.96875 -5.21875 C 2.65625 -5.039062 2.40625 -4.789062 2.21875 -4.46875 C 2.039062 -4.144531 1.953125 -3.773438 1.953125 -3.359375 C 1.953125 -2.941406 2.039062 -2.566406 2.21875 -2.234375 C 2.40625 -1.910156 2.65625 -1.65625 2.96875 -1.46875 C 3.289062 -1.289062 3.648438 -1.203125 4.046875 -1.203125 Z M 4.046875 -1.203125 "/></g></g></g><g fill="#141514" fill-opacity="1"><g transform="translate(195.031689, 56.047871)"><g><path d="M 3.78125 0.109375 C 2.820312 0.109375 2.070312 -0.15625 1.53125 -0.6875 C 1 -1.21875 0.734375 -1.972656 0.734375 -2.953125 L 0.734375 -6.71875 L 2.296875 -6.71875 L 2.296875 -3.015625 C 2.296875 -1.804688 2.796875 -1.203125 3.796875 -1.203125 C 4.273438 -1.203125 4.640625 -1.347656 4.890625 -1.640625 C 5.148438 -1.929688 5.28125 -2.390625 5.28125 -3.015625 L 5.28125 -6.71875 L 6.828125 -6.71875 L 6.828125 -2.953125 C 6.828125 -1.972656 6.554688 -1.21875 6.015625 -0.6875 C 5.484375 -0.15625 4.738281 0.109375 3.78125 0.109375 Z M 3.78125 0.109375 "/></g></g></g><g fill="#141514" fill-opacity="1"><g transform="translate(208.712951, 56.047871)"><g><path d="M 5.078125 0 L 3.78125 -1.875 L 2.34375 -1.875 L 2.34375 0 L 0.796875 0 L 0.796875 -6.71875 L 3.703125 -6.71875 C 4.296875 -6.71875 4.8125 -6.617188 5.25 -6.421875 C 5.6875 -6.222656 6.023438 -5.941406 6.265625 -5.578125 C 6.503906 -5.210938 6.625 -4.78125 6.625 -4.28125 C 6.625 -3.78125 6.503906 -3.347656 6.265625 -2.984375 C 6.023438 -2.628906 5.679688 -2.351562 5.234375 -2.15625 L 6.75 0 Z M 5.046875 -4.28125 C 5.046875 -4.65625 4.921875 -4.941406 4.671875 -5.140625 C 4.429688 -5.347656 4.078125 -5.453125 3.609375 -5.453125 L 2.34375 -5.453125 L 2.34375 -3.109375 L 3.609375 -3.109375 C 4.078125 -3.109375 4.429688 -3.207031 4.671875 -3.40625 C 4.921875 -3.613281 5.046875 -3.90625 5.046875 -4.28125 Z M 5.046875 -4.28125 "/></g></g></g><g fill="#141514" fill-opacity="1"><g transform="translate(221.885535, 56.047871)"><g/></g></g><g fill="#141514" fill-opacity="1"><g transform="translate(230.719984, 56.047871)"><g><path d="M 6 -1.25 L 6 0 L 0.796875 0 L 0.796875 -6.71875 L 5.875 -6.71875 L 5.875 -5.46875 L 2.34375 -5.46875 L 2.34375 -4.015625 L 5.453125 -4.015625 L 5.453125 -2.796875 L 2.34375 -2.796875 L 2.34375 -1.25 Z M 6 -1.25 "/></g></g></g><g fill="#141514" fill-opacity="1"><g transform="translate(243.278317, 56.047871)"><g><path d="M 6.953125 -6.71875 L 6.953125 0 L 5.671875 0 L 2.328125 -4.078125 L 2.328125 0 L 0.796875 0 L 0.796875 -6.71875 L 2.078125 -6.71875 L 5.421875 -2.640625 L 5.421875 -6.71875 Z M 6.953125 -6.71875 "/></g></g></g><g fill="#141514" fill-opacity="1"><g transform="translate(257.151531, 56.047871)"><g><path d="M 6 -1.25 L 6 0 L 0.796875 0 L 0.796875 -6.71875 L 5.875 -6.71875 L 5.875 -5.46875 L 2.34375 -5.46875 L 2.34375 -4.015625 L 5.453125 -4.015625 L 5.453125 -2.796875 L 2.34375 -2.796875 L 2.34375 -1.25 Z M 6 -1.25 "/></g></g></g><g fill="#141514" fill-opacity="1"><g transform="translate(269.709864, 56.047871)"><g><path d="M 5.078125 0 L 3.78125 -1.875 L 2.34375 -1.875 L 2.34375 0 L 0.796875 0 L 0.796875 -6.71875 L 3.703125 -6.71875 C 4.296875 -6.71875 4.8125 -6.617188 5.25 -6.421875 C 5.6875 -6.222656 6.023438 -5.941406 6.265625 -5.578125 C 6.503906 -5.210938 6.625 -4.78125 6.625 -4.28125 C 6.625 -3.78125 6.503906 -3.347656 6.265625 -2.984375 C 6.023438 -2.628906 5.679688 -2.351562 5.234375 -2.15625 L 6.75 0 Z M 5.046875 -4.28125 C 5.046875 -4.65625 4.921875 -4.941406 4.671875 -5.140625 C 4.429688 -5.347656 4.078125 -5.453125 3.609375 -5.453125 L 2.34375 -5.453125 L 2.34375 -3.109375 L 3.609375 -3.109375 C 4.078125 -3.109375 4.429688 -3.207031 4.671875 -3.40625 C 4.921875 -3.613281 5.046875 -3.90625 5.046875 -4.28125 Z M 5.046875 -4.28125 "/></g></g></g><g fill="#141514" fill-opacity="1"><g transform="translate(282.882448, 56.047871)"><g><path d="M 5.328125 -3.46875 L 6.75 -3.46875 L 6.75 -0.734375 C 6.382812 -0.460938 5.960938 -0.253906 5.484375 -0.109375 C 5.003906 0.0351562 4.519531 0.109375 4.03125 0.109375 C 3.34375 0.109375 2.71875 -0.0351562 2.15625 -0.328125 C 1.601562 -0.628906 1.164062 -1.039062 0.84375 -1.5625 C 0.53125 -2.09375 0.375 -2.691406 0.375 -3.359375 C 0.375 -4.023438 0.53125 -4.617188 0.84375 -5.140625 C 1.164062 -5.671875 1.609375 -6.082031 2.171875 -6.375 C 2.734375 -6.675781 3.363281 -6.828125 4.0625 -6.828125 C 4.65625 -6.828125 5.191406 -6.726562 5.671875 -6.53125 C 6.148438 -6.332031 6.550781 -6.046875 6.875 -5.671875 L 5.875 -4.75 C 5.394531 -5.25 4.816406 -5.5 4.140625 -5.5 C 3.710938 -5.5 3.332031 -5.410156 3 -5.234375 C 2.664062 -5.054688 2.40625 -4.800781 2.21875 -4.46875 C 2.039062 -4.144531 1.953125 -3.773438 1.953125 -3.359375 C 1.953125 -2.941406 2.039062 -2.566406 2.21875 -2.234375 C 2.40625 -1.910156 2.660156 -1.65625 2.984375 -1.46875 C 3.316406 -1.289062 3.695312 -1.203125 4.125 -1.203125 C 4.570312 -1.203125 4.972656 -1.300781 5.328125 -1.5 Z M 5.328125 -3.46875 "/></g></g></g><g fill="#141514" fill-opacity="1"><g transform="translate(296.400551, 56.047871)"><g><path d="M 4.015625 -2.375 L 4.015625 0 L 2.46875 0 L 2.46875 -2.390625 L -0.140625 -6.71875 L 1.515625 -6.71875 L 3.3125 -3.734375 L 5.109375 -6.71875 L 6.625 -6.71875 Z M 4.015625 -2.375 "/></g></g></g></svg>